<?xml version="1.0" standalone="no"?>
<!DOCTYPE svg PUBLIC "-//W3C//DTD SVG 20010904//EN"
 "http://www.w3.org/TR/2001/REC-SVG-20010904/DTD/svg10.dtd">
<svg version="1.0" xmlns="http://www.w3.org/2000/svg"
 width="1280.000000pt" height="1280.000000pt" viewBox="0 0 1280.000000 1280.000000"
 preserveAspectRatio="xMidYMid meet">
<g transform="translate(0.000000,1280.000000) scale(0.100000,-0.100000)"
fill="#000000" stroke="none">
<path d="M8470 9639 c-407 -31 -716 -102 -955 -219 -177 -87 -309 -193 -447
-360 l-38 -45 -42 50 c-299 359 -686 518 -1373 566 -217 15 -798 6 -1035 -15
-371 -34 -763 -91 -1156 -167 l-211 -41 -178 -254 c-98 -140 -183 -258 -188
-261 -5 -3 -205 -15 -444 -27 -470 -24 -453 -21 -453 -80 0 -16 -9 -160 -20
-320 -19 -274 -82 -1213 -185 -2746 -59 -885 -109 -1624 -141 -2099 l-26 -385
52 -140 c29 -78 60 -149 69 -158 15 -15 31 -15 221 -2 113 7 752 50 1420 94
1113 74 1870 124 2510 166 l245 16 180 -60 c653 -219 1094 -212 1656 26 l94
40 460 -29 c253 -15 757 -47 1120 -69 1702 -105 1977 -122 2364 -146 349 -21
416 -23 427 -12 8 8 37 77 65 153 l52 140 -22 320 c-12 176 -37 538 -56 805
-53 740 -262 3718 -291 4125 -13 198 -27 370 -29 382 -4 16 -14 24 -38 27 -17
3 -223 12 -456 21 -233 9 -430 19 -437 22 -7 2 -85 106 -174 229 -89 124 -171
231 -183 238 -33 20 -491 102 -847 150 -216 30 -426 52 -630 66 -167 11 -725
11 -880 -1z m705 -609 c224 -14 445 -35 690 -65 280 -36 576 -83 590 -95 14
-11 11 30 60 -990 85 -1780 106 -2212 118 -2465 8 -148 11 -276 9 -284 -4 -9
-16 -11 -46 -6 -591 95 -916 124 -1476 132 -788 11 -1172 -47 -1535 -230 -95
-48 -253 -147 -321 -203 -35 -29 -60 -41 -65 -31 -1 1 -5 747 -9 1657 -6 1104
-5 1685 2 1745 34 301 160 489 415 622 217 113 510 186 848 212 160 12 524 12
720 1z m-3519 -10 c495 -40 838 -169 1038 -392 79 -87 151 -234 176 -358 19
-92 20 -150 20 -1773 0 -1414 -2 -1678 -14 -1683 -7 -3 -51 21 -97 52 -198
135 -489 248 -793 309 -307 61 -422 70 -876 70 -308 0 -452 -5 -600 -18 -277
-26 -612 -64 -845 -96 -138 -20 -204 -25 -213 -18 -9 7 -11 33 -7 96 3 47 39
853 80 1791 41 938 77 1737 81 1777 l6 72 51 11 c304 67 892 139 1317 163 141
8 560 6 676 -3z m-2454 -686 c-2 -43 -39 -799 -82 -1679 -44 -880 -80 -1605
-80 -1612 0 -18 -318 -493 -330 -493 -13 0 -13 27 5 351 8 151 19 357 25 459
5 102 17 311 25 465 19 351 31 576 50 920 8 149 24 448 35 665 12 217 24 441
28 498 l7 102 149 205 c83 113 155 204 160 202 7 -2 10 -34 8 -83z m7842 -130
c86 -119 156 -223 156 -231 0 -8 38 -681 85 -1496 47 -815 90 -1573 96 -1685
6 -112 9 -206 5 -209 -11 -11 -39 24 -194 249 l-149 216 -7 99 c-6 95 -59
1086 -131 2458 -19 363 -37 695 -40 738 -5 65 -4 77 9 77 8 0 85 -97 170 -216z
m693 118 c13 -8 15 -36 143 -2012 16 -256 39 -604 50 -775 97 -1483 128 -1981
121 -1988 -10 -10 -253 2 -272 13 -10 7 -3 39 29 144 l42 136 -140 2232 c-77
1228 -138 2238 -136 2245 6 14 142 18 163 5z m-9243 -60 c3 -5 1 -76 -4 -158
-5 -82 -25 -419 -45 -749 -19 -330 -44 -748 -55 -930 -69 -1146 -142 -2379
-147 -2491 l-6 -130 43 -128 c25 -75 39 -131 33 -137 -14 -14 -256 -28 -270
-15 -10 9 -4 150 27 646 39 625 87 1406 155 2520 86 1391 97 1555 107 1567 12
15 153 18 162 5z m6886 -3593 c395 -25 812 -74 1265 -150 66 -11 128 -22 137
-25 23 -7 251 -353 244 -370 -4 -9 -19 -12 -53 -8 -26 2 -399 27 -828 55
-1767 113 -2313 148 -2367 153 -57 6 -58 5 -113 -43 -89 -78 -283 -171 -358
-171 -35 0 -33 7 22 89 53 77 161 175 257 233 351 211 952 290 1794 237z
m-3937 1 c597 -29 957 -134 1176 -344 96 -92 168 -206 131 -206 -6 0 -46 14
-89 30 -83 32 -172 85 -233 138 l-36 32 -1588 -110 c-874 -60 -1611 -111
-1639 -114 -90 -10 -89 -6 40 192 64 100 123 186 129 191 7 6 93 24 192 40
495 83 959 134 1359 150 280 12 340 12 558 1z"/>
</g>
</svg>
