<svg width="12" height="20" viewBox="0 0 12 20" fill="none" xmlns="http://www.w3.org/2000/svg">
<path d="M5.06876 10.35C5.83876 8.96 7.31876 8.14 8.17876 6.91C9.08876 5.62 8.57876 3.21 5.99876 3.21C4.30876 3.21 3.47876 4.49 3.12876 5.55L0.538757 4.46C1.24876 2.33 3.17876 0.5 5.98876 0.5C8.33876 0.5 9.94876 1.57 10.7688 2.91C11.4688 4.06 11.8788 6.21 10.7988 7.81C9.59876 9.58 8.44876 10.12 7.82876 11.26C7.57876 11.72 7.47876 12.02 7.47876 13.5H4.58876C4.57876 12.72 4.45876 11.45 5.06876 10.35ZM7.99876 17.5C7.99876 18.6 7.09876 19.5 5.99876 19.5C4.89876 19.5 3.99876 18.6 3.99876 17.5C3.99876 16.4 4.89876 15.5 5.99876 15.5C7.09876 15.5 7.99876 16.4 7.99876 17.5Z" fill="#FAFAFA"/>
</svg>
