<svg width="19" height="18" viewBox="0 0 19 18" fill="none" xmlns="http://www.w3.org/2000/svg">
<path d="M9.04577 13.7835C6.39577 13.6585 4.28744 11.4752 4.28744 8.79183C4.28744 6.0335 6.5291 3.79183 9.28744 3.79183C11.9708 3.79183 14.1541 5.90016 14.2791 8.55016L12.5291 8.02516C12.1874 6.55016 10.8624 5.4585 9.28744 5.4585C7.44577 5.4585 5.9541 6.95016 5.9541 8.79183C5.9541 10.3668 7.04577 11.6918 8.52077 12.0335L9.04577 13.7835ZM17.6208 8.79183C17.6208 9.04183 17.6124 9.29183 17.5874 9.54183L15.9458 9.05016C15.9541 8.96683 15.9541 8.87516 15.9541 8.79183C15.9541 5.1085 12.9708 2.12516 9.28744 2.12516C5.6041 2.12516 2.62077 5.1085 2.62077 8.79183C2.62077 12.4752 5.6041 15.4585 9.28744 15.4585C9.37077 15.4585 9.46244 15.4585 9.54577 15.4502L10.0374 17.0918C9.78743 17.1168 9.53744 17.1252 9.28744 17.1252C4.68744 17.1252 0.954102 13.3918 0.954102 8.79183C0.954102 4.19183 4.68744 0.458496 9.28744 0.458496C13.8874 0.458496 17.6208 4.19183 17.6208 8.79183ZM14.4791 12.3418L17.6208 11.2918L9.28744 8.79183L11.7874 17.1252L12.8374 13.9835L16.3958 17.5418L18.0458 15.8918L14.4791 12.3418Z" fill="white"/>
</svg>
